<svg width="23" height="23" viewBox="0 0 23 23" fill="none" xmlns="http://www.w3.org/2000/svg">
<path d="M14.7365 11.8622V15.7159C14.7365 18.9273 13.4536 20.2118 10.2465 20.2118H6.39787C3.1907 20.2118 1.90784 18.9273 1.90784 15.7159V11.8622C1.90784 8.65077 3.1907 7.36621 6.39787 7.36621H10.2465C13.4536 7.36621 14.7365 8.65077 14.7365 11.8622Z" fill="white"/>
<path opacity="0.4" d="M15.7445 1.86096H11.8959C8.73456 1.86096 7.45169 3.118 7.41504 6.2193H10.2465C14.0951 6.2193 15.882 8.00851 15.882 11.8622V14.6974C18.9792 14.6607 20.2345 13.3761 20.2345 10.2106V6.35693C20.2345 3.14552 18.9517 1.86096 15.7445 1.86096Z" fill="white"/>
</svg>
