<svg width="39" height="39" viewBox="0 0 39 39" fill="none" xmlns="http://www.w3.org/2000/svg">
<mask id="mask0_1_646" style="mask-type:alpha" maskUnits="userSpaceOnUse" x="0" y="0" width="39" height="39">
<ellipse cx="19.25" cy="19.2754" rx="19.25" ry="19.2754" fill="white"/>
</mask>
<g mask="url(#mask0_1_646)">
<path d="M28.2313 -6.77109e-05L19.8917 -1.92761L11.548 -6.77109e-05C9.43047 -6.77109e-05 1.85966e-05 8.48113 1.85966e-05 10.6014L-2.56665 25.7005C-2.56665 27.8208 9.43181 38.5508 11.5493 38.5508H28.2313C30.3488 38.5508 37.2167 31.6759 37.2167 29.5556L41.0667 12.2077C41.0667 10.0874 30.3488 -6.77109e-05 28.2313 -6.77109e-05ZM26.3063 3.85502V9.63766H22.4563C21.3013 9.63766 20.5313 10.4087 20.5313 11.5652V15.4203H26.3063V21.2029H20.5313V34.6957H14.7563V21.2029H10.9063V15.4203H14.7563V10.6014C14.7563 6.93909 17.8363 3.85502 21.4938 3.85502H26.3063Z" fill="white"/>
</g>
</svg>
