<svg width="39" height="39" viewBox="0 0 39 39" fill="none" xmlns="http://www.w3.org/2000/svg">
<mask id="mask0_1_649" style="mask-type:alpha" maskUnits="userSpaceOnUse" x="0" y="0" width="39" height="39">
<g clip-path="url(#clip0_1_649)">
<path d="M35.8904 0H2.94364C1.41007 0 0.166992 1.24472 0.166992 2.78032V35.7706C0.166992 37.3062 1.41007 38.5509 2.94364 38.5509H35.8904C37.424 38.5509 38.667 37.3062 38.667 35.7706V2.78032C38.667 1.24472 37.424 0 35.8904 0V0ZM13.8232 29.1391H9.13492V15.0157H13.8232V29.1391ZM11.4792 13.0872H11.4486C9.87542 13.0872 8.85793 12.0027 8.85793 10.6474C8.85793 9.26154 9.90656 8.20712 11.5103 8.20712C13.1141 8.20712 14.101 9.26154 14.1316 10.6474C14.1316 12.0027 13.1141 13.0872 11.4792 13.0872ZM30.728 29.1391H26.0404V21.5834C26.0404 19.6846 25.3616 18.3896 23.6653 18.3896C22.3702 18.3896 21.5989 19.2631 21.2599 20.1063C21.1359 20.4081 21.1057 20.8299 21.1057 21.2519V29.1391H16.4177C16.4177 29.1391 16.4791 16.3407 16.4177 15.0157H21.1057V17.0154C21.7287 16.0531 22.8434 14.6842 25.3307 14.6842C28.4152 14.6842 30.728 16.7028 30.728 21.0408V29.1391Z" fill="white"/>
</g>
</mask>
<g mask="url(#mask0_1_649)">
<ellipse cx="19.417" cy="19.2754" rx="19.25" ry="19.2754" fill="white"/>
</g>
<defs>
<clipPath id="clip0_1_649">
<rect width="38.5" height="38.5509" fill="white" transform="translate(0.166992)"/>
</clipPath>
</defs>
</svg>
