<svg width="39" height="39" viewBox="0 0 39 39" fill="none" xmlns="http://www.w3.org/2000/svg">
<rect x="0.334473" width="38.5" height="38.5509" rx="19.25" fill="white"/>
<g clip-path="url(#clip0_1_655)">
<path d="M24.2932 8.99539H14.8763C11.8115 8.99539 9.31812 11.492 9.31812 14.5609V23.9905C9.31812 27.0592 11.8115 29.5558 14.8763 29.5558H24.2934C27.3581 29.5558 29.8514 27.0592 29.8514 23.9905V14.5609C29.8514 11.492 27.3581 8.99539 24.2932 8.99539V8.99539ZM19.5848 24.8974C16.4889 24.8974 13.9704 22.3756 13.9704 19.2756C13.9704 16.1757 16.4889 13.6538 19.5848 13.6538C22.6806 13.6538 25.1992 16.1757 25.1992 19.2756C25.1992 22.3756 22.6806 24.8974 19.5848 24.8974ZM25.3334 14.9796C24.4186 14.9796 23.6745 14.2345 23.6745 13.3184C23.6745 12.4023 24.4186 11.6571 25.3334 11.6571C26.2483 11.6571 26.9926 12.4023 26.9926 13.3184C26.9926 14.2345 26.2483 14.9796 25.3334 14.9796Z" fill="#001708"/>
<path d="M19.5858 14.8593C17.1538 14.8593 15.175 16.8405 15.175 19.2758C15.175 21.711 17.1538 23.6924 19.5858 23.6924C22.0179 23.6924 23.9965 21.711 23.9965 19.2758C23.9965 16.8405 22.0179 14.8593 19.5858 14.8593Z" fill="white"/>
<path d="M25.3332 12.8626C25.0822 12.8626 24.8779 13.0671 24.8779 13.3184C24.8779 13.5697 25.0822 13.7742 25.3332 13.7742C25.5843 13.7742 25.7886 13.5699 25.7886 13.3184C25.7886 13.067 25.5843 12.8626 25.3332 12.8626Z" fill="white"/>
</g>
<defs>
<clipPath id="clip0_1_655">
<rect width="20.5334" height="20.5605" fill="white" transform="translate(9.31812 8.99539)"/>
</clipPath>
</defs>
</svg>
