<svg width="39" height="39" viewBox="0 0 39 39" fill="none" xmlns="http://www.w3.org/2000/svg">
<mask id="mask0_1_661" style="mask-type:alpha" maskUnits="userSpaceOnUse" x="0" y="0" width="39" height="39">
<g clip-path="url(#clip0_1_661)">
<path d="M36.2234 0H3.27665C1.74307 0 0.5 1.24472 0.5 2.78032V35.7706C0.5 37.3062 1.74307 38.5509 3.27665 38.5509H36.2234C37.757 38.5509 39 37.3062 39 35.7706V2.78032C39 1.24472 37.757 0 36.2234 0V0ZM28.5394 15.0289C28.5479 15.2187 28.552 15.4092 28.552 15.6007C28.552 21.4469 24.1078 28.1885 15.9806 28.1888H15.9808H15.9806C13.4853 28.1888 11.1634 27.4564 9.20798 26.2014C9.5537 26.2423 9.90559 26.2626 10.2619 26.2626C12.3321 26.2626 14.2373 25.5555 15.7497 24.3687C13.8155 24.3328 12.1847 23.0537 11.6219 21.2958C11.8912 21.3475 12.1682 21.3758 12.4522 21.3758C12.8555 21.3758 13.2462 21.3213 13.6175 21.2199C11.5957 20.8146 10.0727 19.0254 10.0727 16.8831C10.0727 16.8631 10.0727 16.8451 10.0733 16.8266C10.6687 17.1581 11.3496 17.3575 12.0745 17.3798C10.8881 16.5872 10.1083 15.2322 10.1083 13.6972C10.1083 12.8866 10.3271 12.1272 10.7066 11.4733C12.8855 14.1504 16.1418 15.911 19.8141 16.096C19.7383 15.7719 19.6992 15.4342 19.6992 15.0872C19.6992 12.6448 21.6781 10.6633 24.1181 10.6633C25.3891 10.6633 26.537 11.2013 27.3433 12.0613C28.3499 11.8624 29.2951 11.4942 30.149 10.9874C29.8186 12.0201 29.1183 12.8866 28.206 13.4345C29.0998 13.3275 29.9516 13.0901 30.7432 12.7377C30.1519 13.6251 29.4021 14.4045 28.5394 15.0289Z" fill="white"/>
</g>
</mask>
<g mask="url(#mask0_1_661)">
<ellipse cx="19.75" cy="19.2754" rx="19.25" ry="19.2754" fill="white"/>
</g>
<defs>
<clipPath id="clip0_1_661">
<rect width="38.5" height="38.5509" fill="white" transform="translate(0.5)"/>
</clipPath>
</defs>
</svg>
